<?xml version="1.0" encoding="utf-8"?>
<!-- Generator: Adobe Illustrator 16.0.3, SVG Export Plug-In . SVG Version: 6.00 Build 0)  -->
<!DOCTYPE svg PUBLIC "-//W3C//DTD SVG 1.1//EN" "http://www.w3.org/Graphics/SVG/1.1/DTD/svg11.dtd">
<svg version="1.1" id="Layer_1" xmlns:serif="http://www.serif.com/"
	 xmlns="http://www.w3.org/2000/svg" xmlns:xlink="http://www.w3.org/1999/xlink" x="0px" y="0px" width="612px" height="792px"
	 viewBox="0 0 612 792" enable-background="new 0 0 612 792" xml:space="preserve">
<rect x="0" y="65.546" fill="none" width="611.661" height="660.907"/>
<rect x="0" y="65.546" fill="none" width="611.661" height="660.907"/>
<path fill="#0066CC" d="M253.339,298.99L253.339,298.99L253.339,298.99l20.988,14.126c11.127,7.489,69.466,13.845,60.469,79.118
	l57.196,69.371l-3.976,13.219l73.839,89.554l0,0l-14.482,48.139l-81.765-24.599l6.627-13.791l-52.298-25.117
	c-30.765,64.045-52.189,122.859-95.802,178.29l21.006-104.519l-102.468,53.283l71.216-79.411L0.757,695.532l168.047-131.156H86.191
	c42.612-24.037,99.354-66.899,170.223-128.594l-104.146,8.638l-39.833,7.735l161.398-59.921
	c-8.019-21.595-22.979-25.973-13.009-69.071L253.339,298.99h-0.003H253.339z"/>
<path fill="#0033CC" d="M230.497,695.645c24.126-52.233,51.358-136.188,46.92-147.149c-14.774-36.478-9.267-68.436,14.859-94.27
	c2.741-2.938,6.479-0.694,3.768,3.022c-16.017,21.949,0.648,70.939,25.764,83.005l62.037,29.801l-5.989,12.463l63.693,19.16
	l10.008-33.267l10.3-4.032l-14.482,48.139l-81.765-24.599l6.627-13.791l-52.298-25.117c-30.766,64.045-52.189,122.859-95.802,178.29
	L230.497,695.645z"/>
<path fill="#0033CC" d="M273.832,392.234c-8.018-21.595-22.979-25.973-13.009-69.071l-7.484-24.173l14.856,19.981
	c2.009,11.65,7.551,19.774,7.685,33.301l-5.125-1.026c9.063,30.417,22.385,51.217,39.968,62.399l-198.289,38.509L273.832,392.234z"
	/>
<path fill="#99CCFF" d="M268.195,318.971c8.003,10.762,69.373,14.115,60.376,79.388l53.753,65.192l-3.979,13.217l58.704,71.199
	l-12.814,10.565l6.233,7.562l8.571,2.357l2.263,3.974l20.556-8.049l-73.839-89.553l3.976-13.219l-57.196-69.372
	c8.997-65.272-49.342-71.629-60.47-79.118l-20.99-14.126L268.195,318.971z"/>
<path fill="#99CCFF" d="M276.905,328.192c29.034,29.134,38.158,30.277,37.912,66.089l-14.347-32.788l-8.709-8.709
	c-1.439,8.564-0.508,10.637-12.294,9.733C287.163,353.122,288.442,353.143,276.905,328.192"/>
<path fill="#0033CC" d="M330.697,434.756l-10.074-18.508l78.557,95.278c-1.595,1.318-20.407-18.739-31.08-31.685
	C344.112,476.472,330.222,458.351,330.697,434.756"/>
<path d="M360.751,469.25l-16.014-19.423C345.328,460.813,350.667,467.284,360.751,469.25"/>
<path d="M339.921,445.516l-5.036-6.108c1.545,19.986,9.883,31.584,25.016,34.799C345.424,467.053,338.766,457.487,339.921,445.516"
	/>
<path fill="#0066CC" d="M358.906,467.01c-8.122,0.13-12.229-4.854-12.324-14.947L358.906,467.01z"/>
<path fill="#99CCFF" d="M368.672,474.525c3.455-14.789-6.702-26.709-24.32-29.497L368.672,474.525z"/>
<path fill="#003366" d="M582.255,265.689c-0.02,59.039-100.253,166.781-184.757,156.511c-4.749-0.577-8.794,0.672-5.259,4.959
	c52.528,63.71,77.734,56.651,160.299-20.068c-2.046,18.802-26.596,46.985-72.238,81.793c-6.93,5.287-5.481,8.014,0,8.75
	c44.131,5.929,62.931-4.783,100.931-31.112c-20.217,54.579-106.565,95.353-189.235-4.918l-57.196-69.369
	c5.987-43.446-17.855-60.791-37.755-69.741C236.916,204.826,391.395,66.393,548.953,66.393c0,12.417-164.609,47.424-200.834,122.447
	c-4.957,10.267-1.426,7.666,13.322,4.61c33.749-6.989,47.713-8.487,82.221,0.582c8.347,2.193,13.147,0.922,18.506-1.031
	c44.889-16.354,86.842-35.099,108.621-36.519c17.348-1.13,20.638,8.089,11.979,11.352c-42.199,15.904-59.11,29.72-83.147,42.754
	c-4.131,2.239-2.213,6.188,7.832,8.991C613.239,249.11,640.786,269.362,582.255,265.689z M578.666,265.177
	c-78.884-7.915-268.637-113.046-246.617,27.665c0.494,3.174,3.137,8.098,7.36,3.586c22.642-24.164,32.386-37.398,37.913-37.398
	c0,51.87-48.26,55.854-32.405,99.272c0.966,2.645,2.947,5.177,5.667,1.584c8.485-11.216,17.759-21.232,23.666-38.351
	c3.431,34.732-0.798,39.217-18.94,64.078c-2.597,3.559-2.8,5.998,3.598,7.4C469.019,417.105,578.666,265.177,578.666,265.177z"/>
</svg>
